<svg xmlns="http://www.w3.org/2000/svg" xmlns:xlink="http://www.w3.org/1999/xlink" width="500" zoomAndPan="magnify" viewBox="0 0 375 374.999991" height="500" preserveAspectRatio="xMidYMid meet" version="1.0"><defs><g/></defs><g fill="#ffffff" fill-opacity="1"><g transform="translate(124.813444, 287.399991)"><g><path d="M 38.390625 -108.640625 C 43.078125 -117.203125 48.707031 -123.476562 55.28125 -127.46875 C 61.863281 -131.46875 70.203125 -133.46875 80.296875 -133.46875 C 94.503906 -133.46875 104.976562 -129.9375 111.71875 -122.875 C 118.46875 -115.8125 121.84375 -103.960938 121.84375 -87.328125 L 121.84375 0 L 99.921875 0 L 99.921875 -83.09375 C 99.921875 -92.289062 99.070312 -99.128906 97.375 -103.609375 C 95.675781 -108.097656 92.890625 -111.390625 89.015625 -113.484375 C 85.140625 -115.585938 79.769531 -116.640625 72.90625 -116.640625 C 62.65625 -116.640625 54.441406 -113.082031 48.265625 -105.96875 C 42.085938 -98.863281 39 -89.296875 39 -77.265625 L 39 0 L 17.203125 0 L 17.203125 -179.734375 L 39 -179.734375 L 39 -132.984375 C 39 -128.054688 38.859375 -122.96875 38.578125 -117.71875 C 38.296875 -112.476562 38.113281 -109.453125 38.03125 -108.640625 Z M 38.390625 -108.640625 "/></g></g></g><g fill="#ffffff" fill-opacity="1"><g transform="translate(123.050066, 249.994097)"><g><path d="M 18.5 -177.1875 L 18.5 -200.40625 L 42.8125 -200.40625 L 42.8125 -177.1875 Z M 42.8125 18.09375 C 42.8125 31.875 40.109375 41.867188 34.703125 48.078125 C 29.304688 54.285156 21.207031 57.390625 10.40625 57.390625 C 3.46875 57.390625 -2.25 56.988281 -6.75 56.1875 L -6.75 37.40625 L 1.625 38.21875 C 7.832031 38.21875 12.195312 36.597656 14.71875 33.359375 C 17.238281 30.117188 18.5 23.816406 18.5 14.453125 L 18.5 -146.125 L 42.8125 -146.125 Z M 42.8125 18.09375 "/></g></g></g></svg>