<svg xmlns="http://www.w3.org/2000/svg" width="38" height="38" viewBox="0 0 38 38" fill="none">
<g clip-path="url(#clip0_3357_11528)">
<path d="M4.28697 8.6262C4.28697 7.24999 5.40258 6.13439 6.77879 6.13439H36.9512V5.21813C36.9512 3.84193 35.8356 2.72632 34.4593 2.72632H3.37072C1.99452 2.72632 0.878906 3.84193 0.878906 5.21813V25.4685C0.878906 26.8447 1.99452 27.9603 3.37072 27.9603H4.28697V8.6262Z" fill="#06b6d4"/>
<path d="M36.9506 24.0461H0.878384C0.407778 24.0461 0.0263672 23.6643 0.0263672 23.1941C0.0263672 22.7235 0.407778 22.342 0.878384 22.342H36.9506C37.4212 22.342 37.8027 22.7235 37.8027 23.1941C37.8027 23.6643 37.4212 24.0461 36.9506 24.0461Z" fill="#06b6d4"/>
<path d="M34.4581 1.87451H3.36948C1.52566 1.87451 -0.000976562 3.37453 -0.000976562 5.21834V25.4687C-0.000976562 27.3125 1.52566 28.7982 3.36948 28.7982H13.2905V35.1032C13.2905 35.5738 13.6719 35.9552 14.1425 35.9552C14.6131 35.9552 14.9945 35.5738 14.9945 35.1032V28.7982H22.8331V35.1032C22.8331 35.5738 23.2145 35.9552 23.6851 35.9552C24.1557 35.9552 24.5371 35.5738 24.5371 35.1032V28.7982H34.4581C36.3019 28.7982 37.8286 27.3125 37.8286 25.4687V5.21834C37.8286 3.37453 36.3019 1.87451 34.4581 1.87451ZM36.0393 25.4544C36.0393 26.36 35.3051 27.0942 34.3995 27.0942H3.34286C2.43726 27.0942 1.70306 26.36 1.70306 25.4544V5.21834C1.70306 4.31274 2.43726 3.57855 3.34286 3.57855H34.3995C35.3051 3.57855 36.0393 4.31274 36.0393 5.21834V25.4544Z" fill="#06b6d4"/>
<path d="M27.0223 35.9553H11.2563C10.786 35.9553 10.4043 35.5738 10.4043 35.1032C10.4043 34.6326 10.786 34.2512 11.2563 34.2512H27.0223C27.4929 34.2512 27.8743 34.6326 27.8743 35.1032C27.8743 35.5738 27.4929 35.9553 27.0223 35.9553Z" fill="#06b6d4"/>
</g>
<defs>
<clipPath id="clip0_3357_11528">
<rect width="37.8295" height="37.8295" fill="white" transform="translate(-0.000976562)"/>
</clipPath>
</defs>
</svg>