<svg xmlns="http://www.w3.org/2000/svg" width="39" height="38" viewBox="0 0 39 38" fill="none">
<g clip-path="url(#clip0_3357_11517)">
<path d="M12.8015 33.1008C10.9903 33.1008 9.52216 31.6327 9.52216 29.8214V0.946045H9.01864C7.20735 0.946045 5.73926 2.41451 5.73926 4.22543V33.6043C5.73926 35.4156 7.20735 36.8837 9.01864 36.8837H30.8058C32.6167 36.8837 34.0852 35.4156 34.0852 33.6043V33.1008H12.8015Z" fill="#06b6d4"/>
<path d="M24.1865 26.1539C23.8189 26.1535 23.4846 25.9404 23.3294 25.6068C23.1743 25.2736 23.2267 24.8805 23.4635 24.599L25.5874 22.0755L23.4632 19.5519C23.1333 19.1518 23.1872 18.5608 23.5836 18.2268C23.9804 17.8928 24.5722 17.9409 24.9102 18.3339L27.5468 21.4667C27.8431 21.8187 27.8431 22.3326 27.5468 22.6847L24.9106 25.817C24.731 26.0309 24.4658 26.1543 24.1865 26.1539Z" fill="#06b6d4"/>
<path d="M15.6385 26.1539C15.3592 26.1543 15.0944 26.0309 14.9148 25.817L12.2779 22.6847C11.9816 22.3326 11.9816 21.8187 12.2779 21.4667L14.9148 18.3339C15.2525 17.9409 15.8443 17.8928 16.2411 18.2268C16.6378 18.5608 16.6914 19.1518 16.3615 19.5519L14.238 22.0755L16.3619 24.599C16.5987 24.8801 16.6511 25.2732 16.496 25.6068C16.3408 25.94 16.0065 26.1535 15.6389 26.1535L15.6385 26.1539Z" fill="#06b6d4"/>
<path d="M19.1139 28.2423C18.5911 28.2423 18.1674 27.8189 18.167 27.2965C18.1666 27.2485 18.1703 27.2012 18.1774 27.1539L19.7718 16.7133C19.8509 16.1968 20.3333 15.8422 20.8498 15.9208C21.3659 15.9999 21.7205 16.4824 21.6418 16.9988L20.0474 27.4395C19.9768 27.9005 19.5804 28.2415 19.1139 28.2423Z" fill="#06b6d4"/>
<path d="M35.0307 8.62643C35.0307 8.62643 35.0274 8.62569 35.0274 8.62532C35.0237 8.59355 35.0182 8.56178 35.0108 8.53038C35.0108 8.52964 35.01 8.52927 35.0097 8.5289C35.003 8.49787 34.9945 8.46721 34.9853 8.43729C34.9842 8.43433 34.9827 8.43138 34.9816 8.42768C34.9727 8.40071 34.9628 8.37411 34.9513 8.34826C34.9487 8.34198 34.9454 8.3357 34.9421 8.32941C34.9317 8.30725 34.921 8.28545 34.9092 8.26403C34.9044 8.25516 34.8988 8.24666 34.8933 8.2378C34.8826 8.22007 34.8719 8.20233 34.8601 8.18497C34.8527 8.175 34.8449 8.16502 34.8375 8.15505C34.8261 8.14027 34.8146 8.12512 34.8024 8.11108C34.7939 8.10074 34.7847 8.09114 34.7755 8.08116C34.7629 8.06786 34.7503 8.05493 34.7378 8.042C34.7337 8.03831 34.73 8.03388 34.726 8.02981L26.3182 0.251578C26.3119 0.245298 26.3046 0.240126 26.2979 0.234215C26.2865 0.22461 26.275 0.214636 26.2632 0.2054C26.2514 0.195795 26.2403 0.187668 26.2285 0.179171C26.2166 0.170674 26.203 0.1607 26.19 0.152203C26.1786 0.144814 26.1668 0.138165 26.1549 0.131146C26.1405 0.122649 26.1265 0.114522 26.1113 0.106764C26.1003 0.100853 26.0892 0.095681 26.0777 0.090509C26.0618 0.0831205 26.046 0.0753626 26.0297 0.0690824C26.0183 0.0642799 26.0072 0.0605856 25.9957 0.0565219C25.9787 0.0506111 25.9621 0.0443309 25.9447 0.039159C25.9325 0.0358342 25.9204 0.0328788 25.9082 0.0299234C25.8912 0.0254903 25.8749 0.0210572 25.8576 0.0177324C25.842 0.014777 25.8262 0.0129299 25.8103 0.0107133C25.7966 0.00849677 25.7826 0.00591079 25.7685 0.00480251C25.7379 0.00184712 25.7072 0 25.6762 0H9.01733C6.6822 0.0014777 4.78779 1.89071 4.7793 4.22585V33.6043C4.78779 35.9391 6.6822 37.828 9.01733 37.8294H30.8045C33.1393 37.828 35.0337 35.9391 35.0426 33.6043V8.7247C35.0403 8.69182 35.0363 8.65894 35.0307 8.62643ZM26.6256 3.10945L31.669 7.75533H27.3157C26.9448 7.76604 26.6359 7.47383 26.6256 7.10293C26.6256 7.09664 26.6256 7.09036 26.6256 7.08482V3.10945ZM30.8045 35.938H9.01733C7.72657 35.9376 6.67814 34.8951 6.67075 33.6043V4.22585C6.67814 2.93508 7.72657 1.89219 9.01733 1.89182H24.7341V7.08482C24.736 8.50157 25.886 9.64863 27.3027 9.64678H33.1511V33.6043C33.1433 34.8951 32.0953 35.9376 30.8045 35.938Z" fill="#06b6d4"/>
</g>
<defs>
<clipPath id="clip0_3357_11517">
<rect width="37.8295" height="37.8295" fill="white" transform="translate(0.998047)"/>
</clipPath>
</defs>
</svg>