<svg xmlns="http://www.w3.org/2000/svg" width="38" height="38" viewBox="0 0 38 38" fill="none">
<g clip-path="url(#clip0_3357_11506)">
<path d="M23.0355 27.8247L34.0998 18.1303L32.5834 16.3984L21.312 26.2736L20.4072 30.5478L22.4838 30.4273L23.0355 27.8247Z" fill="#06b6d4"/>
<path d="M11.6777 1.68868L18.5543 1.6971V5.14398L16.3223 5.12682H8.53244C6.62857 5.12614 5.08488 6.66983 5.08556 8.5737V36.0367C3.18169 36.0373 1.638 34.4937 1.63867 32.5898V5.12682C1.638 3.22295 3.18169 1.67926 5.08556 1.67993L11.6777 1.68868Z" fill="#06b6d4"/>
<path d="M28.1454 10.1592V10.1767H22.2682C20.3643 10.177 18.821 8.63368 18.8213 6.72982V0.870117H18.8388L28.1454 10.1592Z" fill="#06b6d4"/>
<path d="M19.4508 0.267268C19.3067 0.125219 19.1179 0.0370271 18.9166 0.0171671L18.7271 0H5.08595C2.70679 0.00100983 0.778354 1.92945 0.777344 4.3086V33.5209C0.778354 35.9001 2.70679 37.8285 5.08595 37.8295H24.6988C27.078 37.8285 29.0064 35.9001 29.0075 33.5209V31.9786H27.284V33.5209C27.2796 34.9468 26.1247 36.1021 24.6988 36.1061H5.08595C3.66007 36.1021 2.50482 34.9468 2.50079 33.5209V4.3086C2.50482 2.88273 3.66007 1.72748 5.08595 1.72344H17.9599V6.73859C17.9609 9.11775 19.8894 11.0465 22.2685 11.0472H27.284V15.6143H29.0075V10.1683C29.0058 9.93975 28.9162 9.72095 28.7573 9.55635L19.4508 0.267268ZM19.6834 6.73859V2.9386L26.0776 9.32375H22.2685C20.8426 9.31971 19.6877 8.16481 19.6834 6.73859Z" fill="#06b6d4"/>
<path d="M33.237 15.8298C33.0875 15.6565 32.8744 15.5504 32.6459 15.536C32.4173 15.5211 32.1925 15.5992 32.0221 15.7524L20.742 25.6275C20.5993 25.75 20.502 25.917 20.4663 26.1015L19.5615 30.367C19.51 30.6302 19.5797 30.9022 19.751 31.1082C19.9156 31.2987 20.1543 31.4085 20.4061 31.4098H20.4576L24.8783 31.16C25.0701 31.1493 25.2526 31.0732 25.3953 30.9446L36.6754 21.0691C36.8485 20.918 36.9542 20.7039 36.9683 20.4747C36.9858 20.2468 36.9077 20.022 36.7529 19.854L33.237 15.8298ZM24.4821 29.4538L21.4745 29.6261L22.0864 26.7306L32.4961 17.6135L34.883 20.3367L24.4821 29.4538Z" fill="#06b6d4"/>
</g>
<defs>
<clipPath id="clip0_3357_11506">
<rect width="37.8295" height="37.8295" fill="white" transform="translate(0.000976562)"/>
</clipPath>
</defs>
</svg>