<svg xmlns="http://www.w3.org/2000/svg" width="20" height="21" viewBox="0 0 20 21" fill="none">
<g clip-path="url(#clip0_3313_7443)">
<path d="M9.53834 2.10996C9.70914 1.69932 10.2909 1.69932 10.4617 2.10996L12.5278 7.07744C12.5998 7.25056 12.7626 7.36885 12.9495 7.38383L18.3123 7.81376C18.7556 7.8493 18.9354 8.40256 18.5976 8.69189L14.5117 12.1919C14.3693 12.3139 14.3071 12.5053 14.3506 12.6876L15.5989 17.9208C15.7021 18.3534 15.2315 18.6954 14.8519 18.4635L10.2606 15.6592C10.1006 15.5615 9.89938 15.5615 9.73937 15.6592L5.14806 18.4635C4.76851 18.6954 4.29788 18.3534 4.40108 17.9208L5.64939 12.6876C5.69289 12.5053 5.6307 12.3139 5.48831 12.1919L1.40241 8.69189C1.06464 8.40256 1.24441 7.8493 1.68773 7.81376L7.05054 7.38383C7.23744 7.36885 7.40024 7.25056 7.47225 7.07744L9.53834 2.10996Z" fill="#FFBE62"/>
</g>
<defs>
<clipPath id="clip0_3313_7443">
<rect width="20" height="20" fill="white" transform="translate(0 0.5)"/>
</clipPath>
</defs>
</svg>