<svg xmlns="http://www.w3.org/2000/svg" width="38" height="38" viewBox="0 0 38 38" fill="none">
<g clip-path="url(#clip0_3357_11498)">
<path d="M4.72775 13.1785C4.72775 11.0893 6.42158 9.39551 8.5107 9.39551H36.8829C36.9785 9.39551 37.0728 9.40032 37.1666 9.40734V9.05786C37.1666 6.96873 35.4728 5.2749 33.3836 5.2749H5.01147C2.92235 5.2749 1.22852 6.96873 1.22852 9.05786V28.0968C1.22925 30.0758 2.75463 31.7197 4.72775 31.8683V13.1785Z" fill="#06b6d4"/>
<path d="M15.1584 19.233C11.9735 19.233 9.3916 16.6511 9.3916 13.4663C9.3916 10.2814 11.9735 7.69946 15.1584 7.69946C18.3432 7.69946 20.9252 10.2814 20.9252 13.4663C20.9215 16.6496 18.3418 19.2297 15.1584 19.233ZM15.1584 9.59131C13.0183 9.59131 11.2831 11.3261 11.2831 13.4666C11.2831 15.6067 13.0183 17.3416 15.1584 17.3416C17.2985 17.3416 19.0337 15.6067 19.0337 13.4666C19.0311 11.3273 17.2978 9.59353 15.1584 9.59131Z" fill="#06b6d4"/>
<path d="M37.8286 9.36297C37.8286 6.75148 35.7114 4.63428 33.0999 4.63428H4.72772C2.11622 4.63428 -0.000976562 6.75148 -0.000976562 9.36297V28.3723C-0.000976562 30.9838 2.11622 33.101 4.72772 33.101H33.0999C35.7114 33.101 37.8286 30.9838 37.8286 28.3723V9.36297ZM4.72772 6.52575H33.0999C34.6644 6.52575 35.9371 7.83095 35.9371 9.39548V26.7376L27.5348 21.3402C26.2802 20.4595 24.5698 20.6302 23.5136 21.7414L20.8308 24.5369L14.4393 20.5718C13.3358 19.8895 11.9253 19.9615 10.8968 20.7525L1.8905 26.7173V9.39548C1.8905 7.83095 3.16318 6.52575 4.72772 6.52575ZM1.93927 28.9704L11.9726 22.317C11.9951 22.3019 12.0173 22.2819 12.0387 22.2649C12.4421 21.9442 13.0033 21.9106 13.4422 22.1811L19.492 25.9496L14.3683 31.3041H4.72772C3.35898 31.2949 2.18937 30.3159 1.93927 28.9704ZM33.0999 31.3041H16.9898L24.8782 23.0673C25.2927 22.6266 25.9684 22.5582 26.4631 22.9066C26.4742 22.9144 26.4856 22.9181 26.4971 22.9255L35.8883 28.9726C35.6379 30.3177 34.4679 31.296 33.0999 31.3041Z" fill="#06b6d4"/>
</g>
<defs>
<clipPath id="clip0_3357_11498">
<rect width="37.8295" height="37.8295" fill="white" transform="translate(-0.000976562)"/>
</clipPath>
</defs>
</svg>