<svg xmlns="http://www.w3.org/2000/svg" width="38" height="38" viewBox="0 0 38 38" fill="none">
<g clip-path="url(#clip0_3357_11490)">
<path d="M34.1305 37.735H3.96918C3.4468 37.735 3.02344 37.3116 3.02344 36.7892C3.02344 36.2669 3.4468 35.8435 3.96918 35.8435H34.1305C34.6529 35.8435 35.0762 36.2669 35.0762 36.7892C35.0762 37.3116 34.6529 37.735 34.1305 37.735Z" fill="#06b6d4"/>
<path d="M7.7391 22.3738C7.83404 22.0524 8.00804 21.7598 8.24522 21.5226L25.0642 4.7036C26.6336 3.13427 29.1782 3.13427 30.7475 4.7036L31.3974 5.35343C31.3183 4.4088 30.9064 3.52328 30.2355 2.85387L29.4102 2.02856C27.8409 0.459228 25.2962 0.459228 23.7269 2.02856L6.90714 18.8472C6.67034 19.0844 6.49634 19.377 6.40103 19.6984L3.87598 28.2481L6.1923 27.6093L7.7391 22.3738Z" fill="#06b6d4"/>
<path d="M30.079 1.35959C28.1403 -0.579174 24.9972 -0.579174 23.0584 1.35959L6.239 18.1786C6.16844 18.2499 6.10158 18.3245 6.03877 18.4025C6.00811 18.4265 5.97856 18.452 5.95085 18.4793C5.83226 18.5979 5.74766 18.746 5.70555 18.9086C5.61873 19.0756 5.54817 19.2507 5.4946 19.431L2.96955 27.9807C2.87203 28.3098 2.96106 28.666 3.20156 28.9113C3.44242 29.1562 3.79671 29.2515 4.12809 29.1603L12.7953 26.7704C12.9678 26.7228 13.1355 26.6592 13.2966 26.5813C13.54 26.5366 13.7558 26.3973 13.8965 26.1934C13.9664 26.1354 14.0347 26.0752 14.099 26.0109L30.9047 9.20553C32.8405 7.26566 32.8405 4.12477 30.9047 2.1849L30.079 1.35959ZM21.5145 5.57811L26.6858 10.7494L24.6074 12.8278L19.4361 7.65652L21.5145 5.57811ZM7.03328 20.8991L11.343 25.2085L5.26556 26.8846L7.03328 20.8991ZM13.1222 24.313L7.95094 19.1417L18.0988 8.99422L23.2701 14.1655L13.1222 24.313ZM29.5674 7.86857L28.0239 9.41204L22.8526 4.24077L24.3961 2.6973C25.596 1.49702 27.5418 1.49702 28.7421 2.6973L29.5674 3.5226C30.7658 4.72325 30.7658 6.66755 29.5674 7.86857Z" fill="#06b6d4"/>
</g>
<defs>
<clipPath id="clip0_3357_11490">
<rect width="37.8295" height="37.8295" fill="white" transform="translate(-0.000976562)"/>
</clipPath>
</defs>
</svg>