<svg xmlns="http://www.w3.org/2000/svg" width="44" height="39" viewBox="0 0 44 39" fill="none">
<path fill-rule="evenodd" clip-rule="evenodd" d="M34.782 12.5512C35.606 9.30465 36.6417 3.28421 32.9904 1.2431C29.3561 -0.78912 24.6268 3.10498 22.1295 5.44241C19.6395 3.12827 14.7773 -0.749182 11.1291 1.29842C7.49626 3.33745 8.61655 9.25807 9.45882 12.525C6.06999 13.4582 0.260742 15.4683 0.260742 19.5751C0.260742 23.6702 6.06394 25.8571 9.43272 26.7895C8.58733 30.0745 7.52313 35.9105 11.1606 37.945C14.8225 39.9922 19.6695 36.207 22.19 33.8441C24.7033 36.1952 29.3871 40.0052 33.0222 37.965C36.6685 35.9184 35.7188 29.9786 34.8765 26.6927C38.1421 25.7584 43.9578 23.6191 43.9578 19.5751C43.9578 15.5078 38.1174 13.4814 34.782 12.5512ZM34.368 24.9514C33.815 23.2539 33.0685 21.4488 32.1554 19.5841C33.027 17.7634 33.7445 15.9816 34.2821 14.295C36.7272 14.9824 42.0912 16.5533 42.0912 19.5751C42.0912 22.6253 36.9438 24.211 34.368 24.9514ZM32.0867 36.3986C29.3746 37.9207 25.3459 34.2772 23.4898 32.5458C24.7212 31.24 25.9517 29.722 27.1526 28.0363C29.2652 27.8546 31.2609 27.5575 33.0708 27.1519C33.6636 29.4761 34.8108 34.8696 32.0867 36.3986ZM12.0933 36.3769C9.38094 34.8604 10.6207 29.6526 11.2426 27.2328C13.0324 27.6168 15.0137 27.893 17.1313 28.0594C18.3401 29.7089 19.6063 31.225 20.8822 32.5528C19.3058 34.0314 14.8184 37.9003 12.0933 36.3769ZM2.12732 19.5751C2.12732 16.5135 7.4592 14.954 9.96008 14.2684C10.507 15.9928 11.2243 17.7959 12.0899 19.6192C11.213 21.4696 10.4855 23.3013 9.93359 25.0461C7.54896 24.3842 2.12732 22.6385 2.12732 19.5751ZM12.0643 2.86481C14.7878 1.33632 19.0136 5.05882 20.8215 6.73431C19.5521 8.05602 18.2976 9.56074 17.0991 11.2007C15.044 11.3854 13.0767 11.6819 11.2682 12.0793C10.5896 9.44438 9.34378 4.39166 12.0643 2.86481ZM28.488 13.1679C29.8822 13.3385 31.2181 13.5654 32.4723 13.8431C32.0958 15.0133 31.6265 16.2369 31.0737 17.4913C30.2724 16.0173 29.4123 14.5728 28.488 13.1679ZM22.1301 8.0277C22.9911 8.93204 23.8534 9.94192 24.7017 11.0376C22.981 10.9586 21.2576 10.9583 19.537 11.0364C20.386 9.95092 21.2557 8.94254 22.1301 8.0277ZM13.1608 17.49C12.6172 16.24 12.1521 15.0109 11.7723 13.824C13.0191 13.5535 14.3487 13.3324 15.7339 13.1646C14.8069 14.5664 13.9483 16.0103 13.1608 17.49ZM15.7736 26.1148C14.3427 25.9599 12.993 25.7501 11.7466 25.487C12.1324 24.2792 12.6077 23.0237 13.163 21.7467C13.9612 23.2418 14.833 24.6997 15.7736 26.1148ZM22.1818 31.2503C21.2971 30.3247 20.4145 29.3009 19.5527 28.1997C21.2831 28.2655 23.0168 28.2657 24.7471 28.1908C23.8962 29.3121 23.0369 30.3374 22.1818 31.2503ZM31.0915 21.6817C31.6756 22.9725 32.1679 24.2212 32.559 25.4086C31.2919 25.689 29.924 25.9148 28.4828 26.0824C29.4139 24.6509 30.2877 23.184 31.0915 21.6817ZM26.1109 26.3018C23.464 26.4852 20.8007 26.4831 18.1529 26.3168C16.6484 24.186 15.3091 21.9451 14.153 19.6186C15.3036 17.297 16.6331 15.0604 18.1305 12.933C20.7801 12.7388 23.4461 12.7382 26.0957 12.9342C27.5803 15.0615 28.9078 17.2922 30.085 19.5929C28.9218 21.9133 27.5852 24.1544 26.1109 26.3018ZM32.0581 2.81101C34.7823 4.33449 33.5697 9.74523 32.9745 12.0981C31.1617 11.6924 29.193 11.3906 27.1319 11.203C25.9311 9.54536 24.6871 8.03801 23.4382 6.73338C25.2693 5.0218 29.3602 1.30242 32.0581 2.81101Z" fill="#53C1DE"/>
</svg>